v 3.19375 1.117587E-08 0.19375
v 3.19375 1.117587E-08 -3.19375
v -0.19375 1.117587E-08 -3.19375
v -0.19375 1.117587E-08 0.19375
v -0.19375 0.1 0.19375
v -0.19375 0.1 -3.19375
v 3.19375 0.1 -3.19375
v 3.19375 0.1 0.19375
v -0.19375 1.117587E-08 0.19375
v -0.19375 1.117587E-08 -3.19375
v -0.19375 0.1 -3.19375
v -0.19375 0.1 0.19375
v 3.19375 1.117587E-08 -3.19375
v 3.19375 1.117587E-08 0.19375
v 3.19375 0.1 0.19375
v 3.19375 0.1 -3.19375
v 3.19375 1.117587E-08 0.19375
v -0.19375 1.117587E-08 0.19375
v -0.19375 0.1 0.19375
v 3.19375 0.1 0.19375
v -0.19375 1.117587E-08 -3.19375
v 3.19375 1.117587E-08 -3.19375
v 3.19375 0.1 -3.19375
v -0.19375 0.1 -3.19375
v 3.19375 0.1 0.19375
v 3.19375 0.1 -3.19375
v -0.19375 0.1 -3.19375
v -0.19375 0.1 0.19375
v -0.19375 3 -1.4999
v -0.19375 3 -1.5001
v 3.19375 3 -1.5001
v 3.19375 3 -1.4999
v -0.19375 0.1 0.19375
v -0.19375 0.1 -3.19375
v -0.19375 3 -1.5001
v -0.19375 3 -1.4999
v 3.19375 0.1 -3.19375
v 3.19375 0.1 0.19375
v 3.19375 3 -1.4999
v 3.19375 3 -1.5001
v 3.19375 0.1 0.19375
v -0.19375 0.1 0.19375
v -0.19375 3 -1.4999
v 3.19375 3 -1.4999
v -0.19375 0.1 -3.19375
v 3.19375 0.1 -3.19375
v 3.19375 3 -1.5001
v -0.19375 3 -1.5001
v 2.7813 -0.0001 0.2187
v 2.7813 0.153212 0.218713
v 2.7813 3.476057 -1.499887
v 2.7813 0.1532179 -3.218711
v 2.7813 -0.0001 -3.2187
v 2.7813 -0.0001 -0.2187
v 2.7813 0.046788 -0.218713
v 2.7813 2.523943 -1.499913
v 2.7813 0.04678209 -2.781288
v 2.7813 -0.0001 -2.7813
v 3.2187 -0.0001 0.2187
v 3.2187 0.153212 0.218713
v 3.2187 3.476057 -1.499887
v 3.2187 0.1532179 -3.218711
v 3.2187 -0.0001 -3.2187
v 3.2187 -0.0001 -0.2187
v 3.2187 0.046788 -0.218713
v 3.2187 2.523943 -1.499913
v 3.2187 0.04678209 -2.781288
v 3.2187 -0.0001 -2.7813
v 2.7813 -0.0001 0.2187
v 3.2187 -0.0001 0.2187
v 2.7813 0.153212 0.218713
v 3.2187 0.153212 0.218713
v 2.7813 3.476057 -1.499887
v 3.2187 3.476057 -1.499887
v 2.7813 0.1532179 -3.218711
v 3.2187 0.1532179 -3.218711
v 2.7813 -0.0001 -3.2187
v 3.2187 -0.0001 -3.2187
v 2.7813 -0.0001 -0.2187
v 3.2187 -0.0001 -0.2187
v 2.7813 0.046788 -0.218713
v 3.2187 0.046788 -0.218713
v 2.7813 2.523943 -1.499913
v 3.2187 2.523943 -1.499913
v 2.7813 0.04678209 -2.781288
v 3.2187 0.04678209 -2.781288
v 2.7813 -0.0001 -2.7813
v 3.2187 -0.0001 -2.7813
v 2.7813 -0.0001 -0.2187
v 2.7813 -0.0001 0.2187
v 3.2187 -0.0001 0.2187
v 3.2187 -0.0001 -0.2187
v 2.7813 -0.0001 -3.2187
v 2.7813 -0.0001 -2.7813
v 3.2187 -0.0001 -2.7813
v 3.2187 -0.0001 -3.2187
v -0.2187 -0.0001 0.2187
v -0.2187 0.153212 0.218713
v -0.2187 3.476057 -1.499887
v -0.2187002 0.1532179 -3.218711
v -0.2187002 -0.0001 -3.2187
v -0.2187 -0.0001 -0.2187
v -0.2187 0.046788 -0.218713
v -0.2187 2.523943 -1.499913
v -0.2187001 0.04678209 -2.781288
v -0.2187002 -0.0001 -2.7813
v 0.2187 -0.0001 0.2187
v 0.2187 0.153212 0.218713
v 0.2187 3.476057 -1.499887
v 0.2186998 0.1532179 -3.218711
v 0.2186998 -0.0001 -3.2187
v 0.2187 -0.0001 -0.2187
v 0.2187 0.046788 -0.218713
v 0.2187 2.523943 -1.499913
v 0.2186998 0.04678209 -2.781288
v 0.2186998 -0.0001 -2.7813
v -0.2187 -0.0001 0.2187
v 0.2187 -0.0001 0.2187
v -0.2187 0.153212 0.218713
v 0.2187 0.153212 0.218713
v -0.2187 3.476057 -1.499887
v 0.2187 3.476057 -1.499887
v -0.2187002 0.1532179 -3.218711
v 0.2186998 0.1532179 -3.218711
v -0.2187002 -0.0001 -3.2187
v 0.2186998 -0.0001 -3.2187
v -0.2187 -0.0001 -0.2187
v 0.2187 -0.0001 -0.2187
v -0.2187 0.046788 -0.218713
v 0.2187 0.046788 -0.218713
v -0.2187 2.523943 -1.499913
v 0.2187 2.523943 -1.499913
v -0.2187001 0.04678209 -2.781288
v 0.2186998 0.04678209 -2.781288
v -0.2187002 -0.0001 -2.7813
v 0.2186998 -0.0001 -2.7813
v -0.2187 -0.0001 -0.2187
v -0.2187 -0.0001 0.2187
v 0.2187 -0.0001 0.2187
v 0.2187 -0.0001 -0.2187
v -0.2187002 -0.0001 -3.2187
v -0.2187002 -0.0001 -2.7813
v 0.2186998 -0.0001 -2.7813
v 0.2186998 -0.0001 -3.2187
vn 0 -1 0
vn 0 -1 0
vn 0 -1 0
vn 0 -1 0
vn 0 1 0
vn 0 1 0
vn 0 1 0
vn 0 1 0
vn -1 0 0
vn -1 0 0
vn -1 0 0
vn -1 0 0
vn 1 0 0
vn 1 0 0
vn 1 0 0
vn 1 0 0
vn 0 0 1
vn 0 0 1
vn 0 0 1
vn 0 0 1
vn 0 0 -1
vn 0 0 -1
vn 0 0 -1
vn 0 0 -1
vn 0 -1 0
vn 0 -1 0
vn 0 -1 0
vn 0 -1 0
vn 0 1 0
vn 0 1 0
vn 0 1 0
vn 0 1 0
vn -1 1.027666E-08 0
vn -1 1.027666E-08 0
vn -1 1.027286E-08 0
vn -1 1.027666E-08 0
vn 1 0 0
vn 1 0 0
vn 1 0 0
vn 1 0 0
vn 0 0.5043116 0.8635218
vn 0 0.5043116 0.8635218
vn 0 0.5043116 0.8635218
vn 0 0.5043116 0.8635218
vn 0 0.5043116 -0.8635218
vn 0 0.5043116 -0.8635218
vn 0 0.5043116 -0.8635218
vn 0 0.5043116 -0.8635218
vn -1 0 5.585883E-08
vn -1 0 2.188155E-08
vn -0.9999999 -1.122847E-12 5.217909E-08
vn -1 2.657959E-08 7.951749E-08
vn -1 0 5.480535E-08
vn -1 0 5.480534E-08
vn -1 0 1.537461E-08
vn -1 2.054325E-08 6.145871E-08
vn -1 4.519559E-08 3.68278E-08
vn -1 0 5.840694E-08
vn 1 0 -5.585883E-08
vn 1 0 -2.188154E-08
vn 0.9999999 0 -1.085153E-08
vn 1 0 -1.519191E-08
vn 1 0 -5.480535E-08
vn 1 0 -5.480534E-08
vn 1 0 -1.537461E-08
vn 1 0 -1.174176E-08
vn 1 0 -2.58306E-08
vn 1 0 -5.840694E-08
vn 6.014074E-08 -5.344641E-06 1
vn 6.061346E-08 -1.005724E-05 1
vn 4.349404E-08 0.3589124 0.9333712
vn 2.672487E-08 0.4023914 0.9154678
vn 3.262344E-08 0.9502068 0.31162
vn 1.139191E-08 0.9502168 -0.3115895
vn -2.460218E-08 0.4024354 -0.9154484
vn -3.852235E-08 0.3589527 -0.9333557
vn -5.255573E-08 -9.011251E-06 -1
vn -5.585869E-08 -4.78879E-06 -1
vn -5.84068E-08 -5.569274E-06 -1
vn -5.994079E-08 -1.094415E-05 -1
vn -7.169494E-08 -0.3538234 -0.9353123
vn -4.697068E-08 -0.3934325 -0.9193535
vn -5.010487E-08 -0.9627488 -0.2703974
vn -1.325949E-08 -0.9627574 0.2703669
vn 3.080157E-08 -0.3934769 0.9193345
vn 4.701512E-08 -0.3538643 0.9352968
vn 5.725642E-08 -9.616882E-06 1
vn 5.840694E-08 -4.905063E-06 1
vn 0 -1 0
vn 0 -1 0
vn 0 -1 0
vn 0 -1 0
vn 0 -1 0
vn 0 -1 0
vn 0 -1 0
vn 0 -1 0
vn -1 -6.108527E-09 6.014074E-08
vn -1 4.785778E-09 2.181235E-08
vn -0.9999999 2.678831E-08 4.730191E-08
vn -1 1.340681E-08 7.838536E-08
vn -1 9.799961E-15 6.303438E-08
vn -1 -8.166633E-16 5.754835E-08
vn -1 1.98173E-08 4.637101E-08
vn -1 2.292854E-08 8.370541E-08
vn -1 -7.676176E-09 9.988154E-08
vn -1 6.386463E-09 5.977606E-08
vn 1 3.641581E-13 -6.014074E-08
vn 1 -9.571414E-09 -2.123017E-08
vn 0.9999999 -2.678831E-08 -4.730191E-08
vn 1 -1.506814E-08 -7.87896E-08
vn 1 -1.306661E-14 -6.577739E-08
vn 1 -1.198628E-08 -5.60902E-08
vn 1 -2.149862E-08 -4.596195E-08
vn 1 -2.292854E-08 -8.370541E-08
vn 1 7.676175E-09 -1.011744E-07
vn 1 6.684144E-13 -6.114519E-08
vn 6.014074E-08 -5.344642E-06 1
vn 6.061346E-08 -1.005724E-05 1
vn 4.349403E-08 0.3589125 0.9333712
vn 2.672487E-08 0.4023914 0.9154677
vn 3.262343E-08 0.9502068 0.3116201
vn 1.139191E-08 0.9502168 -0.3115894
vn -2.460218E-08 0.4024355 -0.9154484
vn -3.852236E-08 0.3589527 -0.9333558
vn -5.255573E-08 -9.011249E-06 -1
vn -5.585869E-08 -4.788788E-06 -1
vn -5.84068E-08 -5.569275E-06 -1
vn -5.994079E-08 -1.094416E-05 -1
vn -7.169492E-08 -0.3538234 -0.9353122
vn -4.697068E-08 -0.3934325 -0.9193535
vn -5.010486E-08 -0.9627488 -0.2703974
vn -1.325949E-08 -0.9627574 0.2703668
vn 3.080157E-08 -0.3934769 0.9193345
vn 4.701512E-08 -0.3538643 0.9352967
vn 5.725642E-08 -9.61688E-06 1
vn 5.840694E-08 -4.905062E-06 1
vn 0 -1 0
vn 0 -1 0
vn 0 -1 0
vn 0 -1 0
vn 0 -1 0
vn 0 -1 0
vn 0 -1 0
vn 0 -1 0
vt 0.1649545 0.7701465
vt 0.1649545 0.8708451
vt 0.2656532 0.8708451
vt 0.2656532 0.7701465
vt 0.2656532 0.7701465
vt 0.2656532 0.8708451
vt 0.3663518 0.8708451
vt 0.3663518 0.7701465
vt 0.3663518 0.7701465
vt 0.3663518 0.8708451
vt 0.4670505 0.8708451
vt 0.4670505 0.7701465
vt 0.4670505 0.7701465
vt 0.4670505 0.8708451
vt 0.5677491 0.8708451
vt 0.5677491 0.7701465
vt 0.2656532 0.6694478
vt 0.1649545 0.6694478
vt 0.1649545 0.7701465
vt 0.2656532 0.7701465
vt 0.2656532 0.8708451
vt 0.1649545 0.8708451
vt 0.1649545 0.9715438
vt 0.2656532 0.9715438
vt 0.0005 0.2841246
vt 0.0005 0.4259368
vt 0.1423123 0.4259368
vt 0.1423123 0.2841246
vt 0.1423123 0.2841246
vt 0.1423123 0.4259368
vt 0.2841246 0.4259368
vt 0.2841246 0.2841246
vt 0.2841246 0.2841246
vt 0.2841246 0.4259368
vt 0.4259368 0.4259368
vt 0.4259368 0.2841246
vt 0.4259368 0.2841246
vt 0.4259368 0.4259368
vt 0.5677491 0.4259368
vt 0.5677491 0.2841246
vt 0.1423123 0.1423123
vt 0.0005 0.1423123
vt 0.0005 0.2841246
vt 0.1423123 0.2841246
vt 0.1423123 0.4259368
vt 0.0005 0.4259368
vt 0.0005 0.5677491
vt 0.1423123 0.5677491
vt 0.5687492 0.3515582
vt 0.5751559 0.3515582
vt 0.7841216 0.3515582
vt 0.9930933 0.3515582
vt 0.9995 0.3515582
vt 0.5687492 0.3795533
vt 0.5751559 0.3795533
vt 0.7841216 0.3795533
vt 0.9930933 0.3795533
vt 0.9995 0.3795533
vt 0.5687492 0.2955681
vt 0.5751559 0.2955681
vt 0.7841216 0.2955681
vt 0.9930933 0.2955681
vt 0.9995 0.2955681
vt 0.5687492 0.3235632
vt 0.5751559 0.3235632
vt 0.7841216 0.3235632
vt 0.9930933 0.3235632
vt 0.9995 0.3235632
vt 0.5687492 0.3235632
vt 0.5687492 0.3515582
vt 0.5751559 0.3235632
vt 0.5751559 0.3515582
vt 0.7841216 0.3235632
vt 0.7841216 0.3515582
vt 0.9930933 0.3235632
vt 0.9930933 0.3515582
vt 0.9995 0.3235632
vt 0.9995 0.3515582
vt 0.5687492 0.267573
vt 0.5687492 0.2955681
vt 0.5751559 0.267573
vt 0.5751559 0.2955681
vt 0.7841216 0.267573
vt 0.7841216 0.2955681
vt 0.9930933 0.267573
vt 0.9930933 0.2955681
vt 0.9995 0.267573
vt 0.9995 0.2955681
vt 0.6624393 0.1221853
vt 0.6624393 0.09419019
vt 0.6904344 0.09419019
vt 0.6904344 0.1221853
vt 0.8778148 0.1221853
vt 0.8778148 0.09419019
vt 0.9058098 0.09419019
vt 0.9058098 0.1221853
vt 0.5687492 0.783309
vt 0.5751559 0.783309
vt 0.7841216 0.783309
vt 0.9930933 0.783309
vt 0.9995 0.783309
vt 0.5687492 0.8113041
vt 0.5751559 0.8113041
vt 0.7841216 0.8113041
vt 0.9930933 0.8113041
vt 0.9995 0.8113041
vt 0.5687492 0.7273189
vt 0.5751559 0.7273189
vt 0.7841216 0.7273189
vt 0.9930933 0.7273189
vt 0.9995 0.7273189
vt 0.5687492 0.755314
vt 0.5751559 0.755314
vt 0.7841216 0.755314
vt 0.9930933 0.755314
vt 0.9995 0.755314
vt 0.5687492 0.755314
vt 0.5687492 0.783309
vt 0.5751559 0.755314
vt 0.5751559 0.783309
vt 0.7841216 0.755314
vt 0.7841216 0.783309
vt 0.9930933 0.755314
vt 0.9930933 0.783309
vt 0.9995 0.755314
vt 0.9995 0.783309
vt 0.5687492 0.6993239
vt 0.5687492 0.7273189
vt 0.5751559 0.6993239
vt 0.5751559 0.7273189
vt 0.7841216 0.6993239
vt 0.7841216 0.7273189
vt 0.9930933 0.6993239
vt 0.9930933 0.7273189
vt 0.9995 0.6993239
vt 0.9995 0.7273189
vt 0.6624393 0.5539361
vt 0.6624393 0.525941
vt 0.6904344 0.525941
vt 0.6904344 0.5539361
vt 0.8778148 0.5539361
vt 0.8778148 0.525941
vt 0.9058098 0.525941
vt 0.9058098 0.5539361
f 4/4/4 2/2/2 1/1/1
f 4/4/4 3/3/3 2/2/2
f 8/8/8 6/6/6 5/5/5
f 8/8/8 7/7/7 6/6/6
f 12/12/12 10/10/10 9/9/9
f 12/12/12 11/11/11 10/10/10
f 16/16/16 14/14/14 13/13/13
f 16/16/16 15/15/15 14/14/14
f 20/20/20 18/18/18 17/17/17
f 20/20/20 19/19/19 18/18/18
f 24/24/24 22/22/22 21/21/21
f 24/24/24 23/23/23 22/22/22
f 28/28/28 26/26/26 25/25/25
f 28/28/28 27/27/27 26/26/26
f 32/32/32 30/30/30 29/29/29
f 32/32/32 31/31/31 30/30/30
f 36/36/36 34/34/34 33/33/33
f 36/36/36 35/35/35 34/34/34
f 40/40/40 38/38/38 37/37/37
f 40/40/40 39/39/39 38/38/38
f 44/44/44 42/42/42 41/41/41
f 44/44/44 43/43/43 42/42/42
f 48/48/48 46/46/46 45/45/45
f 48/48/48 47/47/47 46/46/46
f 54/54/54 49/49/49 50/50/50
f 55/55/55 54/54/54 50/50/50
f 55/55/55 50/50/50 51/51/51
f 56/56/56 55/55/55 51/51/51
f 56/56/56 51/51/51 52/52/52
f 57/57/57 56/56/56 52/52/52
f 57/57/57 52/52/52 53/53/53
f 58/58/58 57/57/57 53/53/53
f 64/64/64 60/60/60 59/59/59
f 64/64/64 65/65/65 60/60/60
f 65/65/65 61/61/61 60/60/60
f 65/65/65 66/66/66 61/61/61
f 66/66/66 62/62/62 61/61/61
f 66/66/66 67/67/67 62/62/62
f 67/67/67 63/63/63 62/62/62
f 67/67/67 68/68/68 63/63/63
f 70/70/70 71/71/71 69/69/69
f 72/72/72 71/71/71 70/70/70
f 72/72/72 73/73/73 71/71/71
f 74/74/74 73/73/73 72/72/72
f 74/74/74 75/75/75 73/73/73
f 76/76/76 75/75/75 74/74/74
f 76/76/76 77/77/77 75/75/75
f 78/78/78 77/77/77 76/76/76
f 81/81/81 80/80/80 79/79/79
f 81/81/81 82/82/82 80/80/80
f 83/83/83 82/82/82 81/81/81
f 83/83/83 84/84/84 82/82/82
f 85/85/85 84/84/84 83/83/83
f 85/85/85 86/86/86 84/84/84
f 87/87/87 86/86/86 85/85/85
f 87/87/87 88/88/88 86/86/86
f 92/92/92 90/90/90 89/89/89
f 92/92/92 91/91/91 90/90/90
f 96/96/96 94/94/94 93/93/93
f 96/96/96 95/95/95 94/94/94
f 102/102/102 97/97/97 98/98/98
f 103/103/103 102/102/102 98/98/98
f 103/103/103 98/98/98 99/99/99
f 104/104/104 103/103/103 99/99/99
f 104/104/104 99/99/99 100/100/100
f 105/105/105 104/104/104 100/100/100
f 105/105/105 100/100/100 101/101/101
f 106/106/106 105/105/105 101/101/101
f 112/112/112 108/108/108 107/107/107
f 112/112/112 113/113/113 108/108/108
f 113/113/113 109/109/109 108/108/108
f 113/113/113 114/114/114 109/109/109
f 114/114/114 110/110/110 109/109/109
f 114/114/114 115/115/115 110/110/110
f 115/115/115 111/111/111 110/110/110
f 115/115/115 116/116/116 111/111/111
f 118/118/118 119/119/119 117/117/117
f 120/120/120 119/119/119 118/118/118
f 120/120/120 121/121/121 119/119/119
f 122/122/122 121/121/121 120/120/120
f 122/122/122 123/123/123 121/121/121
f 124/124/124 123/123/123 122/122/122
f 124/124/124 125/125/125 123/123/123
f 126/126/126 125/125/125 124/124/124
f 129/129/129 128/128/128 127/127/127
f 129/129/129 130/130/130 128/128/128
f 131/131/131 130/130/130 129/129/129
f 131/131/131 132/132/132 130/130/130
f 133/133/133 132/132/132 131/131/131
f 133/133/133 134/134/134 132/132/132
f 135/135/135 134/134/134 133/133/133
f 135/135/135 136/136/136 134/134/134
f 140/140/140 138/138/138 137/137/137
f 140/140/140 139/139/139 138/138/138
f 144/144/144 142/142/142 141/141/141
f 144/144/144 143/143/143 142/142/142
